#!OML:ASF E:\Mandelcareful walks\Project 1\Capture day 1\Session 1\Subject1.ASF
:FULLY-SPECIFIED
:DEGREES
1909
root -4.94708 15.7627 -14.543 -713.817 55.4039 362.794
lowerback 32.8903 1.71329 -3.48575
upperback 8.89866 1.77471 1.76923
thorax -7.20047 1.05295 3.06514
lowerneck -26.3387 -4.82805 -7.30389
upperneck 24.0713 -5.45914 5.67443
head 12.7667 -2.27922 2.39512
rclavicle -2.42517e-014 -6.20208e-014
rhumerus -17.278 -7.04792 -78.2293
rradius 49.9136
rwrist -26.7164
rhand -13.7807 -19.7542
rfingers 7.12502
rthumb 12.3405 -49.37
lclavicle -2.42517e-014 -6.20208e-014
lhumerus -19.6945 -13.907 85.2823
lradius 47.7644
lwrist 27.4817
lhand -28.5376 -12.6906
lfingers 7.12502
lthumb -1.90511 17.2806
rfemur -26.2417 -6.78025 6.65099
rtibia 58.5449
rfoot -16.4343 -12.6224
rtoes 8.63905
lfemur -32.2345 16.7023 -24.8082
ltibia 54.4375
lfoot -26.8597 9.31713
ltoes 4.11009
1910
root -4.81807 15.7622 -14.6225 -714.476 53.8977 362.619
lowerback 33.2635 1.70769 -3.52552
upperback 8.8869 1.72434 1.69869
thorax -7.34821 1.02718 3.0228
lowerneck -26.7007 -4.72379 -6.94019
upperneck 24.4931 -5.45595 5.67601
head 12.9949 -2.2348 2.33965
rclavicle -1.31198e-014 -1.98785e-015
rhumerus -17.5313 -7.42891 -78.4274
rradius 49.7107
rwrist -26.3436
rhand -13.6771 -19.6425
rfingers 7.12502
rthumb 12.4405 -49.2522
lclavicle -1.31198e-014 -1.98785e-015
lhumerus -19.1074 -14.4981 84.6817
lradius 47.3471
lwrist 27.4175
lhand -28.9428 -13.3959
lfingers 7.12502
lthumb -2.29646 16.5715
rfemur -27.4457 -7.55853 7.05816
rtibia 60.0245
rfoot -16.5025 -13.4118
rtoes 9.88245
lfemur -31.3005 17.604 -25.0414
ltibia 54.4427
lfoot -27.4105 9.85973
ltoes 3.34862
1911
root -4.69206 15.7608 -14.6975 -714.916 52.5206 362.556
lowerback 33.5587 1.70553 -3.78537
upperback 8.79051 1.62296 1.83115
thorax -7.56663 0.97556 3.33175
lowerneck -26.8605 -4.5742 -6.82904
upperneck 24.9299 -5.24605 5.51317
head 13.1789 -2.15092 2.30329
rclavicle -1.86858e-014 2.18663e-014
rhumerus -17.9994 -7.33578 -78.2799
rradius 49.709
rwrist -26.2914
rhand -13.5881 -19.5423
rfingers 7.12502
rthumb 12.5262 -49.1468
lclavicle -1.86858e-014 2.18663e-014
lhumerus -18.6986 -14.7713 84.4602
lradius 46.9274
lwrist 26.7748
lhand -29.9635 -14.1095
lfingers 7.12502
lthumb -3.28218 15.845
rfemur -28.7909 -8.54381 7.54425
rtibia 61.1535
rfoot -16.6412 -13.8973
rtoes 8.8397
lfemur -30.5834 18.3183 -25.3623
ltibia 54.5357
lfoot -28.1855 10.4398
ltoes 2.73869
1912
root -4.56641 15.7537 -14.7699 -715.034 51.1445 362.551
lowerback 33.3939 1.62773 -4.06777
upperback 8.77021 1.43181 1.94335
thorax -7.51959 0.876631 3.67398
lowerneck -27.1066 -4.33186 -6.68296
upperneck 25.3122 -4.86899 5.21838
head 13.3418 -2.01033 2.23994
rclavicle 7.95139e-015 -2.5842e-014
rhumerus -18.3024 -7.03619 -78.2939
rradius 49.8279
rwrist -26.1607
rhand -14.0631 -20.1295
rfingers 7.12502
rthumb 12.0683 -49.7615
lclavicle 7.95139e-015 -2.5842e-014
lhumerus -18.0726 -14.6105 84.1188
lradius 46.6821
lwrist 26.4547
lhand -30.374 -14.0199
lfingers 7.12502
lthumb -3.6786 15.9281
rfemur -30.5387 -9.77228 8.13089
rtibia 61.9227
rfoot -16.741 -13.748
rtoes 7.39059
lfemur -30.2206 18.9913 -25.8322
ltibia 54.6672
lfoot -28.9479 11.1029
ltoes 2.15384
1913
root -4.43978 15.7377 -14.8325 -715.258 49.7614 362.379
lowerback 33.0447 1.50277 -4.13935
upperback 8.86921 1.25627 1.98888
thorax -7.26697 0.781024 3.83045
lowerneck -27.1276 -4.04758 -6.57234
upperneck 25.2373 -4.48753 5.14404
head 13.2814 -1.84564 2.2651
rclavicle -7.11649e-014 6.67916e-014
rhumerus -18.4377 -6.96874 -78.4136
rradius 49.7808
rwrist -25.946
rhand -14.2756 -20.248
rfingers 7.12502
rthumb 11.8633 -49.8919
lclavicle -7.11649e-014 6.67916e-014
lhumerus -17.2273 -14.1652 83.5986
lradius 46.5486
lwrist 26.5166
lhand -30.1667 -14.1735
lfingers 7.12502
lthumb -3.47847 15.7779
rfemur -32.2528 -10.9688 8.9207
rtibia 62.278
rfoot -16.8833 -13.007
rtoes 6.97505
lfemur -29.8864 19.7168 -26.1572
ltibia 54.8171
lfoot -29.6692 11.6242
ltoes 2.35759
1914
root -4.31342 15.7207 -14.8845 -715.553 48.302 362.322
lowerback 33.0331 1.50188 -4.31766
upperback 8.86682 1.1889 2.05633
thorax -7.26316 0.741727 4.02208
lowerneck -27.3902 -3.76425 -6.28896
upperneck 25.5368 -4.07155 4.74023
head 13.4083 -1.69196 2.14185
rclavicle 4.85035e-014 -1.03368e-014
rhumerus -18.8621 -7.01197 -78.3091
rradius 49.5899
rwrist -25.9956
rhand -14.1098 -19.3416
rfingers 7.12502
rthumb 12.0232 -48.9763
lclavicle 4.85035e-014 -1.03368e-014
lhumerus -16.6278 -13.5764 83.276
lradius 46.5003
lwrist 26.2969
lhand -30.4388 -14.9643
lfingers 7.12502
lthumb -3.74116 14.9826
rfemur -33.6781 -11.6177 9.61758
rtibia 62.1909
rfoot -17.1214 -11.8335
rtoes 7.13344
lfemur -29.3322 20.5483 -26.4508
ltibia 54.9661
lfoot -30.5058 11.9823
ltoes 3.0569
1915
root -4.19096 15.7083 -14.9254 -715.681 46.6678 362.447
lowerback 33.0369 1.61763 -4.73191
upperback 8.8124 1.18296 2.08885
thorax -7.32726 0.733155 4.28069
lowerneck -27.5712 -3.53555 -6.11902
upperneck 25.8774 -3.71185 4.40977
head 13.5491 -1.56551 2.05657
rclavicle 1.11319e-014 -2.18663e-014
rhumerus -19.3021 -7.12464 -78.2821
rradius 49.3166
rwrist -25.9761
rhand -14.43 -18.9408
rfingers 7.12502
rthumb 11.7145 -48.5932
lclavicle 1.11319e-014 -2.18663e-014
lhumerus -16.2705 -13.0285 82.9638
lradius 46.6188
lwrist 26.0588
lhand -30.8403 -15.123
lfingers 7.12502
lthumb -4.12889 14.8168
rfemur -35.0827 -11.5822 10.2083
rtibia 61.6247
rfoot -17.1959 -10.8526
rtoes 6.60475
lfemur -28.8036 21.7079 -26.8626
ltibia 55.0741
lfoot -31.3779 12.2307
ltoes 3.17738
1916
root -4.07022 15.6962 -14.9565 -715.411 45.0754 362.767
lowerback 32.5833 1.64592 -5.27886
upperback 8.81 1.03683 2.02703
thorax -7.14142 0.652331 4.56727
lowerneck -27.6098 -3.22203 -6.02977
upperneck 26.023 -3.28684 4.34774
head 13.5863 -1.3826 2.10256
rclavicle 5.88403e-014 -7.95139e-016
rhumerus -19.6151 -7.06163 -78.451
rradius 49.1225
rwrist -25.6768
rhand -14.7387 -19.2654
rfingers 7.12502
rthumb 11.4168 -48.9346
lclavicle 5.88403e-014 -7.95139e-016
lhumerus -15.9077 -12.3767 82.4797
lradius 46.8175
lwrist 26.0487
lhand -30.7661 -14.5895
lfingers 7.12502
lthumb -4.05728 15.3516
rfemur -36.6617 -11.4787 10.7046
rtibia 60.576
rfoot -16.961 -10.1689
rtoes 5.00601
lfemur -28.6203 22.9224 -27.4884
ltibia 55.1165
lfoot -32.2154 12.3549
ltoes 3.23906
1917
root -3.94432 15.6902 -14.9916 -714.904 43.8896 363.389
lowerback 32.3645 1.50376 -5.78054
upperback 8.64962 0.683343 1.992
thorax -7.19102 0.482245 4.92699
lowerneck -27.7508 -2.81666 -5.91904
upperneck 26.3846 -2.67679 4.1035
head 13.7203 -1.14451 2.11185
rclavicle 1.59028e-014 1.78906e-014
rhumerus -20.1422 -6.72878 -78.4086
rradius 49.0098
rwrist -25.6331
rhand -14.7847 -19.5725
rfingers 7.12502
rthumb 11.3724 -49.2441
lclavicle 1.59028e-014 1.78906e-014
lhumerus -15.6396 -11.5177 82.226
lradius 46.9493
lwrist 25.9689
lhand -30.6231 -14.2788
lfingers 7.12502
lthumb -3.9192 15.6649
rfemur -38.0984 -12.0292 10.93
rtibia 59.039
rfoot -16.4863 -9.66637
rtoes -0.0924051
lfemur -28.4316 23.6694 -28.3678
ltibia 55.0364
lfoot -32.8676 12.5437
ltoes 3.25498
